<?xml version="1.0" encoding="utf-8"?>
<!-- Generator: Adobe Illustrator 16.0.0, SVG Export Plug-In . SVG Version: 6.00 Build 0)  -->
<!DOCTYPE svg PUBLIC "-//W3C//DTD SVG 1.1//EN" "http://www.w3.org/Graphics/SVG/1.1/DTD/svg11.dtd">
<svg version="1.1" xmlns="http://www.w3.org/2000/svg" xmlns:xlink="http://www.w3.org/1999/xlink" x="0px" y="0px" width="1000px"
	 height="1000px" viewBox="0 0 1000 1000" enable-background="new 0 0 1000 1000" xml:space="preserve">
<g id="Layer_2">
	<rect fill-rule="evenodd" clip-rule="evenodd" fill="#FFFFFF" width="1000" height="1000"/>
</g>
<g id="Layer_1">
	<g>
		<g>
			<path fill-rule="evenodd" clip-rule="evenodd" fill="#96C03D" d="M270.018,344.31c23.611,5.764,47.161,11.785,70.849,17.219
				c26.125,5.98,52.465,11.057,78.53,17.293c9.156,2.201,18.223,5.799,26.54,10.245c22.896,12.235,25.576,42.08,5.125,58.265
				c-6.489,5.133-14.377,9.272-22.287,11.705c-27.009,8.3-54.39,8.346-81.304-0.397c-24.376-7.924-41.704-23.438-47.587-49.39
				c-1.424-6.258-4.431-9.084-10.897-8.539c-6.305,0.535-12.643,0.649-18.967,0.945C270.018,382.535,270.018,363.417,270.018,344.31
				z"/>
			<path fill-rule="evenodd" clip-rule="evenodd" fill="#96C03D" d="M530.818,50.007c9.838,0,19.678,0,29.512,0
				c52.364,0,104.729-0.017,157.092,0.017c12.447,0,12.543,0.085,12.543,12.325c0.025,158.512,0.021,317.013,0.004,475.519
				c-0.004,11.926-0.086,12.091-10.409,12.097c-57.67,0.062-115.342,0.034-173.009,0.012c-1.967,0-3.934-0.296-6.06-0.46
				c14.403-10.58,28.938-19.904,41.945-31.023c53.866-46.052,64.091-121.353,41.862-177.338
				c-10.798-27.194-31.013-45.982-56.266-59.854c-31.741-17.43-66.42-25.708-101.478-32.935
				c-33.919-6.981-67.908-13.706-101.633-21.543c-12.256-2.845-24.669-7.098-35.567-13.256
				c-26.52-15.002-27.122-45.933-1.833-63.104c21.468-14.573,45.91-16.352,70.395-12.635c12.95,1.954,25.951,6.964,37.63,13.076
				c15.562,8.141,24.169,22.668,26.665,40.047c1.035,7.162,3.917,9.394,10.904,9.359c45.636-0.216,91.281-0.071,136.92-0.148
				c10.303-0.017,11.116-1.304,10.262-12.029c-4.775-59.656-33.739-103.81-85.414-133.434c-1.504-0.864-2.959-1.807-4.438-2.706
				C530.571,51.33,530.693,50.664,530.818,50.007z"/>
		</g>
	</g>
	<g>
		<g>
			<path fill-rule="evenodd" clip-rule="evenodd" fill="#15272E" d="M609.576,874.413c5.619-2.371,10.492-5.76,14.096-10.73
				c4.918-6.78,7.475-14.433,8.102-22.768c1.234-16.426-4.648-29.471-18.551-38.545c-9.588-6.26-20.396-8.643-31.672-8.704
				c-26.643-0.146-53.287-0.069-79.932-0.077c-0.41,0-0.82,0.065-1.28,0.104c0,51.008,0,101.91,0,152.852
				c13.269,0,26.425,0,39.761,0c0-18.545,0-36.985,0-55.608c2.408,0,4.639-0.01,6.871,0.002c8.916,0.047,17.836-0.063,26.744,0.211
				c6.16,0.189,10.928,3.133,13.688,8.775c1.189,2.428,2.148,4.994,2.939,7.582c2.234,7.312,2.5,14.92,3.166,22.468
				c0.169,3.532,0,16.711,0,16.711l36.85-0.035v-34.396c-0.613-7.596-2.066-15.012-5.387-21.951
				c-3.406-7.115-8.576-12.28-16.295-14.592c-0.229-0.068-0.424-0.242-0.645-0.372c0.115-0.163,0.158-0.286,0.24-0.327
				C608.701,874.801,609.137,874.601,609.576,874.413z M591.527,847.345c-1.422,7.835-7.133,12.413-15.77,12.633
				c-6.189,0.157-12.387,0.061-18.578,0.068c-5.074,0.007-10.145,0.004-15.217-0.002c-0.572-0.001-1.145-0.047-1.801-0.075
				c0-11.486,0-22.836,0-34.387c0.656-0.029,1.178-0.073,1.701-0.073c9.984-0.004,19.967-0.021,29.951,0.006
				c4.361,0.012,8.604,0.595,12.496,2.792c4.643,2.622,7.223,6.6,7.584,11.872C592.057,842.552,591.951,845.007,591.527,847.345z"/>
			<path fill-rule="evenodd" clip-rule="evenodd" fill="#15272E" d="M857.598,883.812c0,20.93,0,41.779,0,62.733
				c-13.338,0-26.494,0-39.758,0c0-50.929,0-101.795,0-152.812c13.188,0,26.379,0,39.719,0c0,18.481,0,36.885,0,55.437
				c17.568,0,34.988,0,52.623,0c0-0.716,0-1.392,0-2.067c0-17.195,0.02-34.391-0.033-51.586c-0.004-1.531,0.4-1.975,1.949-1.967
				c12.016,0.062,24.031,0.035,36.047,0.035c0.578,0,1.156,0,1.855,0c0,51.032,0,101.896,0,152.912c-13.191,0-26.393,0-39.775,0
				c0-20.86,0-41.711,0-62.686C892.619,883.812,875.199,883.812,857.598,883.812z"/>
			<path fill-rule="evenodd" clip-rule="evenodd" fill="#15272E" d="M202.123,793.679c40.652,0,81.211,0,121.885,0
				c0,10.572,0,21.107,0,31.83c-27.32,0-54.573,0-81.916,0c0,8.979,0,17.769,0,26.758c24.915,0,49.817,0,74.839,0
				c0,10.362,0,20.527,0,30.898c-24.91,0-49.809,0-74.818,0c0,9.785,0,19.365,0,29.216c0.732,0,1.453,0,2.172,0
				c26.592,0,53.184,0,79.775,0.001c2.256,0,2.257,0.001,2.257,2.232c0,9.985,0,19.971,0,29.956c0,0.626,0,1.252,0,1.976
				c-41.496,0-82.795,0-124.194,0C202.123,895.583,202.123,844.679,202.123,793.679z"/>
			<path fill-rule="evenodd" clip-rule="evenodd" fill="#15272E" d="M138.605,839.538c-0.144-1.51-0.186-3.006-0.443-4.464
				c-0.891-5.034-3.902-8.467-8.437-10.561c-8.233-3.802-16.801-4.308-25.466-1.913c-2.232,0.617-4.458,1.922-6.222,3.448
				c-5.179,4.483-4.79,11.789,0.666,15.91c3.729,2.817,8.087,4.354,12.523,5.524c8.194,2.163,16.471,4.014,24.673,6.149
				c9.942,2.589,19.578,6.03,28.412,11.382c7.023,4.255,12.967,9.592,16.109,17.447c2.358,5.895,3.121,12.065,2.875,18.375
				c-0.348,8.891-2.274,17.346-7.192,24.905c-6.235,9.586-15.241,15.51-25.852,19.201c-13.603,4.733-27.688,5.5-41.9,4.682
				c-10.641-0.612-20.932-2.926-30.482-7.82c-16.316-8.361-25.507-21.699-27.454-39.962c-0.225-2.107-0.275-4.234-0.416-6.505
				c0.726-0.048,1.237-0.108,1.749-0.109c12.174-0.005,24.348,0.021,36.522-0.037c1.432-0.007,1.762,0.483,1.886,1.808
				c0.189,2.009,0.536,4.029,1.067,5.975c1.894,6.948,6.218,11.835,13.131,13.902c10.807,3.232,21.611,3.505,31.94-1.789
				c5.691-2.918,8.175-8.668,6.759-14.506c-0.658-2.714-2.174-4.938-4.421-6.468c-2.231-1.519-4.624-2.882-7.108-3.927
				c-8.099-3.408-16.708-5.07-25.206-7.117c-10.601-2.554-21.028-5.638-30.583-11.096c-7.975-4.555-14.716-10.4-18.194-19.118
				c-6.288-15.759-3.401-36.288,13.627-49.173c8.222-6.222,17.596-9.82,27.629-11.641c16.195-2.939,32.214-2.451,47.746,3.588
				c12.225,4.754,21.896,12.488,27.767,24.49c2.826,5.779,3.866,11.937,3.93,18.312c0.01,1-0.369,1.283-1.312,1.281
				c-12.441-0.02-24.882-0.014-37.324-0.021C139.295,839.692,138.985,839.599,138.605,839.538z"/>
			<path fill-rule="evenodd" clip-rule="evenodd" fill="#15272E" d="M796.857,887.558c-0.404,3.111-0.65,6.293-1.25,9.406
				c-2.85,14.786-9.557,27.433-21.141,37.26c-8.316,7.055-17.971,11.464-28.582,13.683c-15.73,3.291-31.336,2.922-46.521-2.745
				c-19.686-7.347-33.516-20.953-41.955-40.113c-6.541-14.85-8.07-30.404-6.314-46.384c1.477-13.44,5.732-25.923,13.525-37.023
				c11.795-16.803,28.023-26.796,48.201-30.116c17.742-2.92,34.971-0.876,51.09,7.387c16.561,8.489,27.555,21.621,31.613,40.067
				c0.65,2.948,0.928,5.979,1.418,9.241c-0.891,0-1.457,0-2.021,0c-12.121,0-24.242-0.021-36.363,0.033
				c-1.326,0.006-1.805-0.354-2.066-1.679c-1.018-5.161-3.004-9.885-6.748-13.73c-4.322-4.438-9.725-6.627-15.725-7.527
				c-7.277-1.093-14.508-1.055-21.4,1.884c-9.18,3.914-14.979,11.064-18.533,20.178c-3.547,9.091-4.164,18.583-3.6,28.204
				c0.432,7.363,1.846,14.515,5.23,21.138c4.996,9.773,12.553,16.381,23.607,18.275c6.826,1.17,13.646,0.844,20.193-1.592
				c9.059-3.368,13.947-10.33,16.156-19.437c0.438-1.812,0.629-3.682,1.062-5.494c0.109-0.455,0.711-1.134,1.088-1.135
				c12.76-0.055,25.521-0.04,38.283-0.028C796.252,887.31,796.396,887.402,796.857,887.558z"/>
			<path fill-rule="evenodd" clip-rule="evenodd" fill="#15272E" d="M488.329,946.65c-0.743,0-1.218,0-1.693,0
				c-12.707,0-25.415-0.022-38.122,0.033c-1.368,0.007-1.925-0.442-2.352-1.713c-2.726-8.137-5.564-16.236-8.303-24.368
				c-0.351-1.04-0.815-1.371-1.91-1.369c-16.872,0.036-33.744,0.037-50.615,0c-1.107-0.003-1.582,0.362-1.937,1.386
				c-2.864,8.262-5.791,16.502-8.675,24.757c-0.29,0.829-0.613,1.303-1.645,1.3c-12.868-0.039-25.735-0.025-38.603-0.031
				c-0.312-0.001-0.623-0.072-1.102-0.132c0.238-0.675,0.437-1.27,0.656-1.855c17.862-47.738,35.727-95.477,53.591-143.215
				c0.84-2.246,1.715-4.481,2.504-6.745c0.296-0.851,0.765-1.129,1.646-1.128c12.707,0.022,25.415,0.038,38.122-0.018
				c1.356-0.006,1.531,0.818,1.867,1.716c10.371,27.716,20.746,55.43,31.124,83.142c8.284,22.121,16.575,44.24,24.858,66.361
				C487.943,945.311,488.087,945.874,488.329,946.65z M410.98,836.092c-0.156,0.007-0.312,0.013-0.469,0.02
				c-5.76,17.757-11.521,35.514-17.327,53.411c11.646,0,23.07,0,34.697,0C422.207,871.587,416.593,853.839,410.98,836.092z"/>
		</g>
		<g>
			<g>
				<path fill-rule="evenodd" clip-rule="evenodd" fill="#15272E" d="M544.811,742.157c-2.957-0.575-5.979-0.924-8.857-1.758
					c-15.148-4.394-24.025-14.678-26.984-29.942c-2.031-10.461-1.779-20.956,2.25-31.02c5.031-12.573,14.434-20.161,27.545-23.073
					c8.924-1.982,17.93-1.842,26.682,0.886c14.752,4.593,23.434,14.886,26.357,29.875c1.984,10.182,1.715,20.408-1.926,30.268
					c-5.047,13.666-15.145,21.32-29.271,23.974c-1.547,0.29-3.102,0.528-4.652,0.791
					C552.238,742.157,548.525,742.157,544.811,742.157z M534.926,698.605c0.172,5.27,0.588,10.466,2.881,15.289
					c2.459,5.172,6.314,8.382,12.309,8.475c5.965,0.092,10.02-2.832,12.566-8.024c0.781-1.591,1.424-3.285,1.855-4.999
					c1.436-5.727,1.619-11.547,0.781-17.377c-0.59-4.108-1.754-8.053-4.289-11.448c-3.254-4.357-7.57-6.139-12.969-5.288
					c-5.053,0.792-8.121,4.01-10.223,8.362C535.545,688.343,535.107,693.466,534.926,698.605z"/>
				<path fill-rule="evenodd" clip-rule="evenodd" fill="#15272E" d="M83.819,742.157c-4.096-0.817-8.3-1.284-12.264-2.523
					c-8.762-2.736-15.761-7.818-19.257-16.669c-1.065-2.694-1.503-5.637-2.298-8.737c9.078,0,17.631,0,26.168,0
					c2.758,7.778,8.641,11.078,17.198,9.534c1.861-0.335,3.72-0.959,5.43-1.768c2.082-0.983,3.169-2.84,3.1-5.18
					c-0.071-2.421-1.533-4.021-3.676-4.745c-2.911-0.985-5.907-1.743-8.9-2.454c-6.001-1.432-12.078-2.576-18.026-4.199
					c-5.238-1.428-9.843-4.146-13.596-8.195c-8.082-8.724-7.601-26.431,4.778-34.881c5.779-3.944,12.183-5.962,19.011-6.747
					c7.84-0.902,15.656-0.65,23.289,1.549c7.858,2.268,14.42,6.389,18.512,13.76c1.978,3.562,3.013,8.215,2.759,12.168
					c-8.011,0-16.033,0-24.095,0c-0.093-0.153-0.268-0.313-0.29-0.494c-0.578-4.808-3.54-7.396-7.997-8.557
					c-3.259-0.849-6.578-0.924-9.748,0.184c-1.621,0.568-3.251,1.576-4.443,2.805c-2.253,2.327-1.789,5.589,0.806,7.549
					c2.428,1.835,5.327,2.456,8.218,3.093c7.433,1.639,14.899,3.139,22.271,5.02c2.881,0.734,5.668,2.113,8.28,3.586
					c6.235,3.514,9.055,9.182,9.36,16.174c0.548,12.525-5.876,20.566-16.742,25.639c-4.581,2.14-9.45,3.275-14.479,3.745
					c-0.61,0.058-1.209,0.229-1.813,0.346C91.523,742.157,87.672,742.157,83.819,742.157z"/>
				<path fill-rule="evenodd" clip-rule="evenodd" fill="#15272E" d="M728.465,742.157c-4.025-0.809-8.123-1.372-12.061-2.485
					c-5.855-1.657-10.92-4.789-14.971-9.414c-3.949-4.507-5.867-9.824-6.301-15.979c8.627,0,17.164,0,25.77,0
					c0.057,0.096,0.217,0.252,0.256,0.44c1.326,5.929,5.561,8.359,11.098,9.107c3.09,0.416,6.182,0.202,9.168-0.784
					c0.838-0.275,1.658-0.684,2.398-1.168c4.025-2.622,3.82-7.8-0.58-9.662c-2.936-1.24-6.148-1.869-9.275-2.608
					c-5.537-1.308-11.145-2.335-16.645-3.773c-5.523-1.443-10.594-3.949-14.49-8.258c-9.086-10.049-7.412-26.129,3.494-34.521
					c4.904-3.775,10.504-5.905,16.547-6.926c9.398-1.589,18.732-1.415,27.914,1.392c4.113,1.258,7.863,3.246,11.18,6.014
					c6.02,5.028,8.855,11.531,9.006,19.492c-8.158,0-16.227,0-24.35,0c-0.115-0.393-0.285-0.776-0.34-1.176
					c-0.49-3.573-2.676-5.844-5.832-7.15c-4.08-1.689-8.307-1.746-12.467-0.261c-1.193,0.427-2.363,1.162-3.297,2.025
					c-2.695,2.497-2.51,6.432,0.67,8.222c2.457,1.384,5.279,2.252,8.041,2.933c7.721,1.896,15.516,3.496,23.236,5.403
					c2.168,0.534,4.252,1.576,6.238,2.643c7.461,3.999,10.414,10.498,10.299,18.743c-0.141,9.894-4.951,16.896-13.203,21.82
					c-5.459,3.258-11.449,4.9-17.732,5.575c-0.607,0.065-1.203,0.234-1.805,0.357C736.441,742.157,732.455,742.157,728.465,742.157z
					"/>
				<path fill-rule="evenodd" clip-rule="evenodd" fill="#15272E" d="M356.617,742.157c-2.757-0.528-5.565-0.868-8.261-1.615
					c-14.212-3.936-23.235-13.171-26.852-27.385c-2.981-11.715-2.78-23.47,1.976-34.748c5.4-12.8,15.367-20.131,28.927-22.457
					c9.563-1.641,19.099-1.248,28.083,2.796c12.918,5.815,19.639,16.015,20.414,30.146c0.01,0.197-0.07,0.398-0.136,0.751
					c-8,0-16.011,0-24.255,0c-0.179-0.829-0.36-1.748-0.575-2.658c-2.987-12.662-15.947-13.467-22.008-8.576
					c-3.239,2.613-5.041,6.132-5.958,10.103c-1.899,8.207-1.962,16.393,1.32,24.272c3.846,9.231,15.137,11.922,22.415,5.524
					c2.31-2.03,3.543-4.67,4.258-7.597c0.193-0.788,0.361-1.582,0.558-2.453c8.183,0,16.258,0,24.502,0
					c-0.254,8.284-2.555,15.65-8.029,21.821c-6.282,7.084-14.42,10.5-23.637,11.706c-0.675,0.087-1.342,0.243-2.013,0.369
					C363.77,742.157,360.194,742.157,356.617,742.157z"/>
				<path fill-rule="evenodd" clip-rule="evenodd" fill="#15272E" d="M487.032,624.124c4.119,1.216,7.481,3.426,9.439,7.381
					c3.869,7.811-1.203,17.375-9.823,18.688c-4.612,0.704-8.755-0.138-12.25-3.339c-7.008-6.425-5.22-17.609,3.432-21.602
					c0.857-0.396,1.732-0.754,2.598-1.129C482.63,624.124,484.832,624.124,487.032,624.124z"/>
				<path fill-rule="evenodd" clip-rule="evenodd" fill="#15272E" d="M188.157,740.477c0-4.066,0-7.806,0-11.775
					c-0.399,0.289-0.592,0.364-0.688,0.507c-6.297,9.433-15.56,12.57-26.35,12.26c-7.977-0.231-14.75-3.273-20.345-9.045
					c-8.592-8.865-9.791-29.659,7.714-37.36c6.647-2.927,13.63-4.096,20.796-4.525c5.348-0.32,10.697-0.627,16.045-0.956
					c0.749-0.048,1.492-0.199,2.591-0.349c-0.112-2.481,0.02-4.968-0.392-7.359c-0.529-3.062-2.615-5.098-5.468-6.228
					c-4.061-1.609-8.198-1.635-12.273-0.086c-3.103,1.181-5.327,3.292-6.37,6.564c-0.178,0.558-0.931,1.326-1.423,1.33
					c-7.425,0.065-14.85,0.02-22.276-0.009c-0.123-0.002-0.245-0.104-0.808-0.357c0.379-2.128,0.58-4.437,1.217-6.618
					c2.431-8.301,8.217-13.664,15.81-17.195c7.574-3.523,15.662-4.384,23.929-4.029c6.161,0.266,12.164,1.276,17.771,3.945
					c7.43,3.534,13.238,8.668,15.465,16.914c0.69,2.554,1.042,5.277,1.055,7.925c0.089,17.949,0.047,35.897,0.046,53.846
					c-0.001,2.593-0.009,2.6-2.611,2.602c-7.015,0.004-14.029,0-21.044,0C189.873,740.477,189.197,740.477,188.157,740.477z
					 M187.703,704.771c-4.689,0.328-9.139,0.535-13.563,0.988c-2.566,0.263-5.197,0.622-7.61,1.47
					c-3.628,1.274-5.235,3.979-5.144,7.581c0.085,3.377,1.912,5.979,5.538,7.104c6.156,1.912,11.939,1.036,17.049-3.073
					c1.926-1.547,3.386-3.571,3.666-6.021C187.93,710.265,187.703,707.649,187.703,704.771z"/>
				<path fill-rule="evenodd" clip-rule="evenodd" fill="#15272E" d="M227.085,740.362c0-27.88,0-55.442,0-83.209
					c8.621,0,17.154,0,25.943,0c0,4.953,0,9.844,0,14.735c0.132,0.025,0.265,0.051,0.397,0.075c0.403-0.762,0.803-1.526,1.212-2.285
					c4.458-8.261,11.469-12.676,20.692-13.846c5.406-0.686,10.738-0.346,15.873,1.4c9.702,3.297,15.328,10.328,17.505,20.163
					c0.617,2.791,0.867,5.713,0.88,8.576c0.078,17.264,0.04,34.528,0.04,51.792c0,0.806,0,1.613,0,2.548
					c-0.825,0.067-1.424,0.158-2.023,0.158c-7.566,0.01-15.131,0.013-22.698,0.001c-2.109-0.004-2.129-0.029-2.131-2.248
					c-0.005-15.337,0.042-30.677-0.053-46.014c-0.013-2.223-0.352-4.566-1.117-6.641c-2.368-6.416-8.428-8.732-14.501-8.008
					c-8.061,0.962-13.137,6.596-13.215,14.766c-0.145,14.993-0.053,29.988-0.066,44.982c-0.003,3.402,0.271,3.164-3.076,3.167
					c-7.015,0.005-14.03,0.004-21.046-0.003C228.892,740.472,228.084,740.406,227.085,740.362z"/>
				<path fill-rule="evenodd" clip-rule="evenodd" fill="#15272E" d="M685.988,740.322c-9.107,0-17.867,0-26.891,0
					c0-0.958,0-1.762,0-2.566c0-15.128,0.002-30.258,0-45.385c0-3.587-0.725-6.988-2.938-9.893c-3.25-4.268-7.84-5.498-12.852-4.904
					c-8.352,0.989-13.258,6.951-13.279,15.811c-0.035,14.717-0.01,29.432-0.01,44.148c0,0.876,0,1.751,0,2.785
					c-9.021,0-17.771,0-26.66,0c0-27.769,0-55.38,0-83.183c8.539,0,17.014,0,25.822,0c0,4.994,0,9.951,0,15.213
					c1.738-2.664,3.061-5.086,4.754-7.211c4.477-5.612,10.52-8.395,17.551-9.3c5.049-0.65,10.035-0.378,14.891,1.071
					c10.605,3.169,16.545,10.615,18.725,21.204c0.615,3.003,0.832,6.133,0.848,9.208c0.078,16.778,0.039,33.558,0.039,50.338
					C685.988,738.473,685.988,739.287,685.988,740.322z"/>
				<path fill-rule="evenodd" clip-rule="evenodd" fill="#15272E" d="M444.169,676.919c0,1.072,0,1.816,0,2.559
					c0,10.521-0.006,21.039,0.009,31.56c0.001,0.958,0.043,1.932,0.208,2.87c0.739,4.244,3.226,6.497,7.563,6.728
					c2.322,0.125,4.657,0.022,7.228,0.022c0.052,0.49,0.165,1.068,0.166,1.646c0.015,5.088-0.031,10.178,0.034,15.266
					c0.019,1.398-0.328,2.068-1.847,2.309c-5.468,0.863-10.963,0.959-16.438,0.43c-3.461-0.334-6.965-0.901-10.282-1.919
					c-8.194-2.514-12.801-8.681-13.13-17.269c-0.191-5.014-0.154-10.034-0.168-15.051c-0.023-8.801-0.007-17.602-0.007-26.403
					c0-0.811,0-1.62,0-2.744c-2.95,0-5.673,0.002-8.396-0.002c-2.738-0.002-2.743-0.004-2.745-2.658
					c-0.004-5.63-0.001-11.263-0.001-17.158c1.001-0.058,1.86-0.139,2.717-0.148c2.062-0.02,4.125,0.002,6.188-0.008
					c2.222-0.012,2.231-0.02,2.235-2.324c0.007-4.539-0.003-9.077,0.007-13.614c0.001-0.735,0.07-1.472,0.112-2.335
					c8.864,0,17.557,0,26.463,0c0,6.022,0,11.975,0,18.219c5.113,0,10.024,0,15.081,0c0.078,0.879,0.175,1.475,0.176,2.071
					c0.015,5.297-0.048,10.591,0.042,15.883c0.028,1.655-0.54,2.138-2.141,2.104C452.992,676.86,448.737,676.919,444.169,676.919z"
					/>
				<path fill-rule="evenodd" clip-rule="evenodd" fill="#15272E" d="M470.65,657.084c8.895,0,17.66,0,26.578,0
					c0,27.729,0,55.344,0,83.176c-8.806,0-17.613,0-26.578,0C470.65,712.6,470.65,684.991,470.65,657.084z"/>
			</g>
			<g>
				<path fill-rule="evenodd" clip-rule="evenodd" fill="#15272E" d="M901.799,742.157c-3.219-0.653-6.512-1.061-9.643-2.002
					c-14.633-4.397-23.162-14.492-26.213-29.206c-2.152-10.386-1.92-20.802,1.914-30.837c5.301-13.875,15.672-21.693,30.117-24.192
					c8.502-1.47,16.994-1.115,25.244,1.612c12.051,3.982,20.244,12.049,24.018,24.142c3.926,12.569,3.799,25.259-1.213,37.529
					c-5.184,12.693-15.172,19.631-28.436,22.156c-1.543,0.296-3.096,0.532-4.645,0.798
					C909.227,742.157,905.516,742.157,901.799,742.157z M922.68,698.492c-0.088-1.489-0.119-3.211-0.301-4.915
					c-0.518-4.909-1.719-9.598-4.857-13.567c-5.227-6.609-14.896-6.853-20.213-0.326c-1.607,1.974-2.809,4.41-3.676,6.819
					c-1.941,5.388-1.99,11.051-1.562,16.689c0.291,3.841,1.027,7.622,2.803,11.106c2.572,5.041,6.475,8.068,12.365,8.075
					c5.789,0.006,9.691-2.888,12.279-7.859C922.1,709.553,922.488,704.158,922.68,698.492z"/>
				<path fill-rule="evenodd" clip-rule="evenodd" fill="#15272E" d="M844.021,624.124c2.691,0.906,5.191,2.096,7.156,4.262
					c3.467,3.821,4.293,8.236,2.76,13.016c-1.561,4.861-5.143,7.781-10.082,8.705c-6.771,1.268-12.654-1.475-15.428-6.838
					c-3.771-7.292-0.119-15.953,7.881-18.694c0.375-0.13,0.74-0.299,1.107-0.45C839.619,624.124,841.82,624.124,844.021,624.124z"/>
				<path fill-rule="evenodd" clip-rule="evenodd" fill="#15272E" d="M827.594,657.087c8.867,0,17.627,0,26.594,0
					c0.043,0.836,0.117,1.57,0.117,2.307c0.006,26.192,0.006,52.389,0.002,78.585c0,2.486-0.01,2.495-2.506,2.496
					c-7.354,0.006-14.711,0.006-22.068-0.003c-0.672,0-1.344-0.072-2.139-0.117C827.594,712.551,827.594,684.891,827.594,657.087z"
					/>
			</g>
			<path fill-rule="evenodd" clip-rule="evenodd" fill="#96C03D" d="M812.236,727.432c-0.023,7.703-6.004,13.735-13.676,13.791
				c-7.564,0.055-13.918-6.35-13.848-13.959c0.07-7.596,6.314-13.82,13.811-13.771C806.33,713.547,812.26,719.574,812.236,727.432z"
				/>
		</g>
	</g>
</g>
</svg>
